<svg width="135" height="28" viewBox="0 0 135 28" fill="none" xmlns="http://www.w3.org/2000/svg">
<g filter="url(#filter0_d_1_448)">
<path d="M0 3C0 1.34315 1.34315 0 3 0H132C133.657 0 135 1.34315 135 3V25C135 26.6569 133.657 28 132 28H3C1.34315 28 0 26.6569 0 25V3Z" fill="white"/>
</g>
<path d="M6 8C6 6.89543 6.89543 6 8 6H20C21.1046 6 22 6.89543 22 8V20C22 21.1046 21.1046 22 20 22H8C6.89543 22 6 21.1046 6 20V8Z" fill="#4353FF"/>
<path d="M16.836 12.704C16.836 12.704 16.024 15.248 15.964 15.464C15.9399 15.252 15.3479 10.68 15.3479 10.68C13.964 10.68 13.228 11.664 12.836 12.704C12.836 12.704 11.848 15.256 11.768 15.468C11.764 15.268 11.616 12.728 11.616 12.728C11.5319 11.452 10.368 10.68 9.42395 10.68L10.56 17.604C12.008 17.6 12.788 16.62 13.196 15.576C13.196 15.576 14.064 13.324 14.1 13.224C14.108 13.32 14.724 17.604 14.724 17.604C16.176 17.604 16.9599 16.688 17.38 15.684L19.4159 10.68C17.9799 10.68 17.224 11.66 16.836 12.704Z" fill="white"/>
<path d="M30.05 18.352H31.49V11.872L34.094 18.352H34.61L37.166 11.872V18.352H38.762V9.77197H36.65L34.442 15.628L32.186 9.77197H30.05V18.352Z" fill="#333333"/>
<path d="M42.1913 18.472C43.1513 18.472 43.7033 18.124 44.1113 17.584V18.352H45.5393V14.236C45.5393 12.52 44.4353 11.944 43.0313 11.944C41.6273 11.944 40.4633 12.556 40.3433 14.02H41.7473C41.8193 13.396 42.1913 13.036 42.9473 13.036C43.7993 13.036 44.0873 13.456 44.0873 14.296V14.62H43.3073C41.5073 14.62 40.0913 15.148 40.0913 16.612C40.0913 17.92 41.0393 18.472 42.1913 18.472ZM42.5393 17.428C41.8193 17.428 41.5313 17.08 41.5313 16.552C41.5313 15.784 42.2393 15.532 43.3433 15.532H44.0873V16.156C44.0873 16.96 43.4273 17.428 42.5393 17.428Z" fill="#333333"/>
<path d="M49.5554 18.472C50.4794 18.472 51.2834 17.92 51.6194 17.296V18.352H53.0714V9.172H51.6194V13.036C51.2714 12.412 50.6354 11.944 49.6154 11.944C47.9834 11.944 46.7954 13.216 46.7954 15.22V15.316C46.7954 17.356 47.9834 18.472 49.5554 18.472ZM49.9154 17.32C48.9794 17.32 48.2834 16.66 48.2834 15.28V15.184C48.2834 13.828 48.9074 13.084 49.9754 13.084C51.0314 13.084 51.6674 13.768 51.6674 15.148V15.244C51.6674 16.648 50.9234 17.32 49.9154 17.32Z" fill="#333333"/>
<path d="M57.5572 18.472C59.1652 18.472 60.2332 17.752 60.4372 16.432H59.0332C58.9252 17.044 58.4692 17.392 57.5932 17.392C56.5132 17.392 55.9132 16.72 55.8652 15.532H60.4612V15.112C60.4612 12.868 59.0572 11.944 57.4972 11.944C55.7092 11.944 54.3772 13.24 54.3772 15.184V15.28C54.3772 17.26 55.7092 18.472 57.5572 18.472ZM55.8892 14.56C56.0332 13.588 56.6212 13 57.4972 13C58.3972 13 58.9492 13.48 59.0212 14.56H55.8892Z" fill="#333333"/>
<path d="M64.6536 18.352H66.1056V12.076H64.6536V18.352ZM65.3616 11.044C65.8416 11.044 66.2256 10.684 66.2256 10.216C66.2256 9.73598 65.8416 9.37598 65.3616 9.37598C64.8816 9.37598 64.4976 9.73598 64.4976 10.216C64.4976 10.684 64.8816 11.044 65.3616 11.044Z" fill="#333333"/>
<path d="M67.8754 18.352H69.3274V14.656C69.3274 13.66 69.9874 13.156 70.8034 13.156C71.6674 13.156 72.0514 13.588 72.0514 14.536V18.352H73.5034V14.404C73.5034 12.676 72.6154 11.944 71.3554 11.944C70.3234 11.944 69.6274 12.46 69.3274 13.072V12.076H67.8754V18.352Z" fill="#333333"/>
<path d="M79.6195 18.352H81.1435L82.8835 12.1L84.5755 18.352H86.1715L88.3195 9.77197H86.8315L85.2955 16.108L83.5915 9.77197H82.2715L80.6035 16.072L79.1155 9.77197H77.4835L79.6195 18.352Z" fill="#333333"/>
<path d="M91.7174 18.472C93.3254 18.472 94.3934 17.752 94.5974 16.432H93.1934C93.0854 17.044 92.6294 17.392 91.7534 17.392C90.6734 17.392 90.0734 16.72 90.0254 15.532H94.6213V15.112C94.6213 12.868 93.2174 11.944 91.6574 11.944C89.8694 11.944 88.5374 13.24 88.5374 15.184V15.28C88.5374 17.26 89.8694 18.472 91.7174 18.472ZM90.0494 14.56C90.1934 13.588 90.7814 13 91.6574 13C92.5574 13 93.1094 13.48 93.1814 14.56H90.0494Z" fill="#333333"/>
<path d="M99.4223 18.472C101.042 18.472 102.206 17.248 102.206 15.232V15.136C102.206 13.108 100.994 11.944 99.4223 11.944C98.4983 11.944 97.7183 12.484 97.3703 13.084V9.172H95.9183V18.352H97.3703V17.344C97.7063 17.98 98.4263 18.472 99.4223 18.472ZM99.0623 17.32C98.0063 17.32 97.3223 16.66 97.3223 15.256V15.16C97.3223 13.768 98.0423 13.084 99.0503 13.084C99.9983 13.084 100.718 13.768 100.718 15.16V15.256C100.718 16.6 100.13 17.32 99.0623 17.32Z" fill="#333333"/>
<path d="M103.764 18.352H105.216V13.168H106.644V12.076H105.216V11.176C105.216 10.636 105.456 10.252 106.032 10.252C106.296 10.252 106.476 10.276 106.644 10.348V9.22C106.416 9.148 106.212 9.112 105.852 9.112C104.52 9.112 103.764 9.856 103.764 11.236V12.076H102.912V13.168H103.764V18.352Z" fill="#333333"/>
<path d="M107.732 18.352H109.184V9.172H107.732V18.352Z" fill="#333333"/>
<path d="M113.761 17.344C112.657 17.344 112.021 16.54 112.021 15.256V15.16C112.021 13.864 112.681 13.084 113.761 13.084C114.841 13.084 115.489 13.876 115.489 15.172V15.256C115.489 16.54 114.841 17.344 113.761 17.344ZM113.749 18.472C115.597 18.472 116.977 17.2 116.977 15.244V15.148C116.977 13.228 115.597 11.944 113.761 11.944C111.913 11.944 110.533 13.24 110.533 15.184V15.28C110.533 17.188 111.901 18.472 113.749 18.472Z" fill="#333333"/>
<path d="M119.41 18.352H120.898L122.17 14.128L123.334 18.352H124.81L126.778 12.076H125.362L124.054 16.612L122.83 12.076H121.618L120.286 16.612L119.038 12.076H117.49L119.41 18.352Z" fill="#333333"/>
<defs>
<filter id="filter0_d_1_448" x="0" y="0" width="135" height="28" filterUnits="userSpaceOnUse" color-interpolation-filters="sRGB">
<feFlood flood-opacity="0" result="BackgroundImageFix"/>
<feColorMatrix in="SourceAlpha" type="matrix" values="0 0 0 0 0 0 0 0 0 0 0 0 0 0 0 0 0 0 127 0" result="hardAlpha"/>
<feOffset/>
<feColorMatrix type="matrix" values="0 0 0 0 0 0 0 0 0 0 0 0 0 0 0 0 0 0 0.1 0"/>
<feBlend mode="normal" in2="BackgroundImageFix" result="effect1_dropShadow_1_448"/>
<feBlend mode="normal" in="SourceGraphic" in2="effect1_dropShadow_1_448" result="shape"/>
</filter>
</defs>
</svg>
