<svg width="53" height="40" viewBox="0 0 53 40" fill="none" xmlns="http://www.w3.org/2000/svg">
<g clip-path="url(#clip0_1_65)">
<path d="M13.1619 31.9199C10.9341 31.9199 9.12158 33.7324 9.12158 35.9603C9.12158 38.1881 10.9341 40.0006 13.1619 40.0006C15.3898 40.0006 17.2023 38.1881 17.2023 35.9603C17.2023 33.7324 15.3897 31.9199 13.1619 31.9199ZM13.1619 37.5764C12.2706 37.5764 11.5458 36.8516 11.5458 35.9603C11.5458 35.069 12.2706 34.3442 13.1619 34.3442C14.0528 34.3442 14.7781 35.069 14.7781 35.9603C14.7781 36.8515 14.0533 37.5764 13.1619 37.5764Z" fill="white"/>
<path d="M25.1212 31.9199C22.8933 31.9199 21.0808 33.7324 21.0808 35.9603C21.0808 38.1881 22.8933 40.0006 25.1212 40.0006C27.349 40.0006 29.1615 38.1881 29.1615 35.9603C29.1615 33.7324 27.349 31.9199 25.1212 31.9199ZM25.1212 37.5764C24.2299 37.5764 23.5051 36.8516 23.5051 35.9603C23.5051 35.069 24.2299 34.3442 25.1212 34.3442C26.0125 34.3442 26.7373 35.069 26.7373 35.9603C26.7373 36.8515 26.0125 37.5764 25.1212 37.5764Z" fill="white"/>
<path d="M32.1304 15.8921C31.9001 15.6028 31.5511 15.4344 31.1818 15.4344H9.9579L8.8561 9.86594C8.75953 9.37826 8.37491 8.99888 7.8856 8.9092L3.03718 8.02032C2.37743 7.8987 1.74712 8.33551 1.62631 8.99407C1.5055 9.65263 1.94144 10.2841 2.60006 10.4049L6.63798 11.1451L10.1951 29.1242C10.3074 29.6919 10.8056 30.1012 11.3841 30.1012H28.3536C28.918 30.1012 29.4073 29.7121 29.5346 29.1614L32.3628 16.9192C32.446 16.5592 32.3604 16.181 32.1304 15.8921ZM27.3895 27.677H12.3796L10.4375 17.859H29.6573L27.3895 27.677Z" fill="white"/>
</g>
<path d="M32 9C32 4.02944 36.0294 0 41 0H44C48.9706 0 53 4.02944 53 9C53 13.9706 48.9706 18 44 18H41C36.0294 18 32 13.9706 32 9Z" fill="white"/>
<path d="M39.8711 13C39.6218 13 39.3944 12.9413 39.1891 12.824C38.9911 12.6993 38.8334 12.538 38.7161 12.34C38.5988 12.1347 38.5401 11.911 38.5401 11.669V6.422C38.5401 6.17267 38.5988 5.949 38.7161 5.751C38.8334 5.54567 38.9911 5.38433 39.1891 5.267C39.3944 5.14233 39.6218 5.08 39.8711 5.08H45.2061C45.4481 5.08 45.6681 5.14233 45.8661 5.267C46.0714 5.38433 46.2328 5.54567 46.3501 5.751C46.4748 5.949 46.5371 6.17267 46.5371 6.422V11.669C46.5371 11.911 46.4748 12.1347 46.3501 12.34C46.2328 12.538 46.0714 12.6993 45.8661 12.824C45.6681 12.9413 45.4481 13 45.2061 13H39.8711ZM39.5521 12.098H45.2061C45.3234 12.098 45.4224 12.0577 45.5031 11.977C45.5911 11.889 45.6351 11.7863 45.6351 11.669V7.082L39.5521 12.098ZM39.4421 11.009L45.5141 5.993H39.8711C39.7538 5.993 39.6511 6.037 39.5631 6.125C39.4824 6.20567 39.4421 6.30467 39.4421 6.422V11.009Z" fill="#141820"/>
<defs>
<clipPath id="clip0_1_65">
<rect width="32" height="32" fill="white" transform="translate(1 8)"/>
</clipPath>
</defs>
</svg>
